<svg xmlns="http://www.w3.org/2000/svg" viewBox="0 0 320.25 320.25"><defs><style>.cls-1{isolation:isolate;}.cls-2,.cls-4{fill:#414042;}.cls-3{fill:#f26522;}.cls-4{mix-blend-mode:multiply;opacity:0.3;}.cls-5{fill:#fff;}</style></defs><g class="cls-1"><g id="Layer_2" data-name="Layer 2"><g id="Layer_1-2" data-name="Layer 1"><path d="M160.13,0A160.13,160.13,0,0,0,44.24,270.63l135.47-43.36q17.78-5.58,22.56-13.46,4-6.37.47-17.75-2.34-7.42-7.64-9.59-7.92-3.37-24.78,1.92l-45.66,14.34q-62.34,19.58-76.85-29.17-7.43-25,2.71-41.41,11.35-18.36,46.19-29.31L185.39,74.9A35.5,35.5,0,0,1,210.3,49.77l18.32-5a2.62,2.62,0,0,1,3.22,1.83l4.07,14.84a1.5,1.5,0,0,1,.54-.26l23.23-6.38a5.75,5.75,0,0,1,7,3.53,5.6,5.6,0,0,1-3.82,7.21L239.41,72a1.72,1.72,0,0,1-.59.06L241.27,81a1.71,1.71,0,0,1,.51-.24l23.47-6.44a5.59,5.59,0,1,1,3,10.79L244.74,91.5a1.55,1.55,0,0,1-.56.06l4.13,15a2.63,2.63,0,0,1-1.83,3.22l-18.32,5a35.7,35.7,0,0,1-34.88-9.53l-80.93,25.5q-30.43,9.57-23.58,31.39,5.69,18.1,30.44,10.34l51-16q33.19-10.41,50.92-2.72,16.26,6.88,23.29,31.2,7.34,25.24-2.77,41.17-11.07,18-46.27,29.08L72.91,294.42A160.13,160.13,0,1,0,160.13,0Z"/><path class="cls-2" d="M225.45,296.09a152.35,152.35,0,0,0,19.9-11.34c2.6-1.8,4.94-3.41,6.88-4.95s3.64-2.76,4.91-3.88l4-3.39-13.07-14.72-2.24,1.91c-.72.59-1.59,1.33-2.58,2.18s-2.21,1.68-3.49,2.66a133.49,133.49,0,0,1-41.9,21.05l-4.25,1.18c-1.24.38-2.36.55-3.28.79l-2.88.65s-.18.68-.49,1.7-.73,2.31-1.18,3.65c-.89,2.65-1.87,5.32-1.87,5.32l-.86.15c-.57.11-1.4.26-2.52.38-2.18.27-5.4.77-9.52,1a146,146,0,0,1-21.94-.08l.74-9.75-.77,0c-.47,0-1.15,0-2-.16l-6-.71c-2.16-.37-4.35-.73-5.95-1l-2.69-.58s-1.81,2.11-3.71,4.21c-1.57,1.77-3.16,3.41-3.67,3.93-3.38-.87-6.82-1.9-10.3-3.13a146.48,146.48,0,0,1-23.3-10.45,140.74,140.74,0,0,1-66.84-85c-1.22-4.33-2.2-8.63-3-12.88.82-.7,2.16-1.83,3.52-2.92,1.1-.86,2.2-1.72,3-2.35s1.41-1,1.41-1-.14-1-.32-2.45-.46-3.43-.57-5.42-.37-3.93-.37-5.42-.07-2.47-.07-2.47l-8.92.22a129.37,129.37,0,0,1,.31-13.2c.14-3.54.68-6.89,1-10.1.25-1.59.51-3.15.77-4.66.12-.76.24-1.49.36-2.23s.32-1.43.48-2.13c.29-1.42.6-2.78.9-4.08s.67-2.56,1-3.75.61-2.38.93-3.47.68-2.13,1-3.11c1.09-3.54,2.19-6.31,3-8.34l8.35,3.31s.75-2.08,1.69-4.07,1.7-3.81,1.78-4l.92-.06s1.27-2.44,3.12-6.12c1.06-1.79,2.21-3.9,3.52-6.11.7-1.1,1.43-2.2,2.16-3.35.35-.56.73-1.13,1.08-1.72s.82-1.12,1.2-1.68c.81-1.11,1.59-2.23,2.38-3.33s1.66-2.11,2.44-3.12,1.55-2,2.33-2.89,1.5-1.74,2.19-2.5,1.28-1.49,1.86-2.1l1.51-1.58c.84-.84,1.3-1.34,1.3-1.34l-14-13.81s-1.25,1.32-3.61,3.75c-1.11,1.29-2.5,2.87-4.14,4.72S41.79,66,39.83,68.53c-.9,1.24-1.84,2.55-2.8,3.94L36.4,72,34.63,74.5c-.8,1.27-1.63,2.55-1.63,2.55s-.69,1.06-1.71,2.66L30.47,81c-.28.47-.56,1-.85,1.48-.6,1-1.22,2.13-1.84,3.23-1.3,2.17-2.35,4.46-3.23,6.15l-1.44,2.81-2.05,4.63c-1,2.28-1.93,4.64-1.93,4.64l.8.32c-1.38,3.49-2.68,7.16-3.86,11a148.06,148.06,0,0,0-6.31,34.54c-.31,4.38-.39,8.87-.26,13.42l-.95,0s0,.88.09,2.51.24,4,.45,7a152.62,152.62,0,0,0,4.31,24.79,155.12,155.12,0,0,0,12.9,33.11c1.62,2.83,3.13,5.76,5,8.59.9,1.4,1.73,2.86,2.71,4.24s1.93,2.8,2.92,4.22a146.18,146.18,0,0,0,13.21,16l1.79,1.9,1.87,1.81c1.23,1.2,2.45,2.43,3.73,3.59,2.62,2.28,5.15,4.63,7.88,6.68a148.87,148.87,0,0,0,16.49,11.46,155.65,155.65,0,0,0,32.39,14.58,157.62,157.62,0,0,0,24.53,5.59l7,.82,2.47.17v-.07c1.64.12,3.28.21,4.91.33s3.2.08,4.76.12,3.15.11,4.73,0a156.5,156.5,0,0,0,34.82-4.55A153.63,153.63,0,0,0,225.45,296.09Z"/><path class="cls-2" d="M174.55,8.88l-2.48-.17v.07l-4.91-.33c-1.6-.12-3.2-.08-4.76-.13s-3.16-.1-4.73,0a156.42,156.42,0,0,0-34.82,4.55A152,152,0,0,0,75,34.23c-2.6,1.8-4.94,3.41-6.88,5s-3.64,2.76-4.91,3.88l-4,3.39L72.31,61.17s.83-.69,2.25-1.91c.71-.59,1.59-1.33,2.57-2.18s2.22-1.68,3.5-2.66a132.64,132.64,0,0,1,41.9-21.05l4.24-1.18c1.25-.38,2.37-.56,3.29-.79l2.87-.65s.19-.68.5-1.7.73-2.31,1.18-3.65c.89-2.65,1.87-5.32,1.87-5.32l.86-.15c.57-.11,1.4-.26,2.51-.38,2.19-.27,5.41-.77,9.53-1a146,146,0,0,1,21.94.08l-.74,9.75.77,0c.46.05,1.15.05,2,.16l6,.71c2.16.37,4.35.73,5.95,1l2.69.58s1.81-2.11,3.71-4.21c1.57-1.77,3.16-3.41,3.67-3.93,3.38.87,6.82,1.9,10.3,3.13a146.48,146.48,0,0,1,23.3,10.45,140.74,140.74,0,0,1,66.84,85c1.22,4.33,2.2,8.63,3,12.88-.82.7-2.16,1.83-3.52,2.92-1.1.86-2.2,1.72-3,2.35s-1.4,1.05-1.4,1.05.14,1,.32,2.45.46,3.43.57,5.42.37,3.93.37,5.42.07,2.47.07,2.47L301,156a129.37,129.37,0,0,1-.31,13.2c-.14,3.54-.68,6.89-1,10.1-.25,1.59-.51,3.15-.77,4.66-.12.76-.24,1.49-.36,2.23s-.33,1.43-.48,2.13q-.45,2.13-.9,4.08c-.29,1.31-.67,2.56-1,3.75s-.61,2.38-.93,3.47-.68,2.13-1,3.11c-1.09,3.54-2.19,6.31-3,8.34l-8.35-3.31s-.75,2.08-1.69,4.07-1.7,3.81-1.78,4l-.93.06s-1.26,2.44-3.11,6.12c-1.06,1.79-2.21,3.9-3.53,6.11-.69,1.1-1.42,2.2-2.15,3.35-.35.55-.73,1.13-1.08,1.72s-.82,1.12-1.2,1.68c-.81,1.11-1.6,2.23-2.39,3.33s-1.65,2.11-2.43,3.12-1.55,2-2.33,2.89-1.5,1.74-2.19,2.5-1.28,1.49-1.86,2.1l-1.51,1.58c-.84.84-1.3,1.34-1.3,1.34l14,13.81s1.26-1.32,3.62-3.75c1.11-1.29,2.5-2.87,4.14-4.72s3.33-4.14,5.29-6.64c.9-1.23,1.84-2.54,2.8-3.93l.62.44,1.78-2.47c.8-1.28,1.63-2.55,1.63-2.55l1.71-2.66c.24-.39.53-.83.82-1.28s.56-1,.85-1.49c.59-1,1.22-2.12,1.84-3.22,1.3-2.17,2.35-4.46,3.23-6.15l1.44-2.81,2-4.63c1.06-2.28,1.94-4.64,1.94-4.64l-.8-.32c1.38-3.49,2.68-7.16,3.86-11a148.06,148.06,0,0,0,6.31-34.54q.47-6.58.26-13.42l.95,0s-.05-.88-.09-2.51-.24-4-.45-7a152.49,152.49,0,0,0-17.21-57.9c-1.62-2.83-3.13-5.76-5-8.59-.9-1.4-1.73-2.86-2.71-4.24s-1.93-2.8-2.92-4.22a146.18,146.18,0,0,0-13.21-16l-1.79-1.9-1.87-1.81c-1.23-1.21-2.46-2.43-3.73-3.59-2.62-2.28-5.16-4.64-7.88-6.68a149,149,0,0,0-16.49-11.47A156.1,156.1,0,0,0,206.1,15.29a159,159,0,0,0-24.53-5.6Z"/><circle class="cls-3" cx="160.1" cy="159.83" r="120"/><path class="cls-4" d="M242.79,237.09q10.85-15.43,4.73-41-5.86-24.63-21.78-32.28-17.34-8.52-51,.3l-51.67,13.57Q98,184.27,93.16,165.91q-5.8-22.12,25-30.23l82.05-21.62a35.7,35.7,0,0,0,34.39,11.17l18.53-4.15a2.62,2.62,0,0,0,2-3.12l-3.41-15.24a1.77,1.77,0,0,0,.56,0l23.75-5.32a5.59,5.59,0,0,0-2.44-10.92l-23.75,5.31a1.51,1.51,0,0,0-.52.22l-2-9a2,2,0,0,0,.59,0l23.73-5.31a5.6,5.6,0,0,0,4.15-7A5.74,5.74,0,0,0,269,66.73L245.48,72a1.78,1.78,0,0,0-.55.23l-3.36-15a2.63,2.63,0,0,0-3.13-2l-18.53,4.15a35.5,35.5,0,0,0-26.08,23.92L103.92,107q-35.33,9.27-47.54,27.07Q45.47,150,51.71,175.28q12.18,49.4,75.37,32.8l46.29-12.15q17.1-4.49,24.84-.74,5.21,2.42,7.18,9.94,3,11.53-1.31,17.71-5.15,7.65-23.18,12.38l-134.26,36c8.14,9.4,19.28,17.33,29.4,24.63l119.15-31.94Q230.88,254.56,242.79,237.09Z"/><path class="cls-5" d="M241.62,226.19q10.09-15.93,2.77-41.17-7-24.33-23.29-31.2-17.73-7.69-50.92,2.72l-51,16q-24.75,7.77-30.44-10.34-6.85-21.83,23.58-31.39l80.93-25.5a35.7,35.7,0,0,0,34.88,9.53l18.32-5a2.63,2.63,0,0,0,1.83-3.22l-4.13-15a1.55,1.55,0,0,0,.56-.06l23.47-6.44a5.59,5.59,0,1,0-3-10.79l-23.47,6.44a1.71,1.71,0,0,0-.51.24L238.82,72a1.72,1.72,0,0,0,.59-.06l23.44-6.43a5.6,5.6,0,0,0,3.82-7.21,5.75,5.75,0,0,0-7-3.53l-23.23,6.38a1.5,1.5,0,0,0-.54.26l-4.07-14.84a2.62,2.62,0,0,0-3.22-1.83l-18.32,5A35.5,35.5,0,0,0,185.39,74.9L96.71,102.84q-34.84,10.95-46.19,29.31-10.14,16.44-2.71,41.41,14.52,48.75,76.85,29.17l45.66-14.34q16.86-5.29,24.78-1.92,5.31,2.16,7.64,9.59,3.57,11.37-.47,17.75-4.77,7.88-22.56,13.46L44.24,270.63a160.93,160.93,0,0,0,28.67,23.79l122.44-39.15Q230.56,244.2,241.62,226.19Z"/></g></g></g></svg>