<svg xmlns="http://www.w3.org/2000/svg" viewBox="0 0 409.65 139"><defs><style>.cls-1{isolation:isolate;}.cls-2{fill:#231f20;}.cls-3{fill:#f26522;}.cls-4{fill:#fff;}.cls-5{fill:#414042;mix-blend-mode:multiply;opacity:0.3;}</style></defs><g class="cls-1"><g id="Layer_2" data-name="Layer 2"><g id="Layer_1-2" data-name="Layer 1"><rect class="cls-2" x="2.78" y="112" width="405" height="27"/><path class="cls-2" d="M24.64,7H52.81l-1.13,9H25.1q-8.51,0-9.34,6.56Q15.07,28,22,28H36.15q9.24,0,12.66,3.61Q52,34.87,50.9,42.08q-1.09,7.5-5.36,11Q40.8,57,31,57H2.32l1.14-9H30.57q4.78,0,6.77-1.68Q39,45,39.4,41.7a3.64,3.64,0,0,0-.73-3.16Q37.19,37,32.65,37H20Q2.36,37,4.43,22.28q1.06-7.53,5.45-11.2Q14.8,7,24.64,7Z"/><path class="cls-2" d="M81.43,57H70.22L75.4,16H58.11l1.13-9h45.9L104,16H86.6Z"/><path class="cls-2" d="M110.79,57H99.39L127.32,7h11.46l15.67,50h-12l-3.26-12H116.76Zm10.67-21H136.8l-5.39-19.06Z"/><path class="cls-2" d="M173,57H161.88l6.31-50h13.75l16.42,36,4.08-36h10.89L207,57H194.6L177.28,19.24Z"/><path class="cls-2" d="M252.39,48l1.39-11H239.49l1.13-9h25.29l-3.66,29H239.1q-24.33,0-21.3-24.06,1.75-13.9,9-20.24Q233.5,7,245.41,7h23.12l-1.14,9H244.25q-5.79,0-9.06,3.32-3.94,3.93-5.13,13.27-1,7.66,1.11,11.33,2.34,4.08,9,4.08Z"/><path class="cls-2" d="M308.24,49l-1,8H293.54q-11,0-15.17-3.41-5.46-4.44-3.9-16.83L278.22,7h10.71l-3.49,27.65a45.92,45.92,0,0,0-.56,8.12,5.81,5.81,0,0,0,2.49,4.69Q289.8,49,295.47,49Z"/><path class="cls-2" d="M359.45,7l-1.14,9h-18q-10.72,0-12.84,11h29.46l-1.14,9H326q-.82,6.48,1.69,9.24T336.45,48h17.8l-1.13,9H335q-24,0-21-24.06,1.56-12.37,7.47-18.71Q328.34,7,341.64,7Z"/><path class="cls-2" d="M371.58,57H360.45l6.31-50H393.3q9.19,0,13.18,3.55t3,11.54a17,17,0,0,1-3.64,9,14.88,14.88,0,0,1-8.45,5l10,20.93H395l-8.68-19H374Zm18.15-41h-13.6l-1.64,13h13.6q5.57,0,7.92-1.39t2.84-5.18c.27-2.14.07-3.6-.61-4.36C397,16.69,394.18,16,389.73,16Z"/><path class="cls-3" d="M18.17,0H46.78V10H19.39q-8.71,0-8.72,7.65,0,6.34,7.09,6.35H32.91Q42.12,24,46,28.1,49.56,31.82,49.4,40q-.15,8.52-4,12.47-4.22,4.5-14,4.5H2.78V47h27q5,0,6.8-2c1-1.06,1.54-2.88,1.54-5.47A5.17,5.17,0,0,0,37,35.82Q35.23,34,30.53,34H17.29Q-.2,34,0,17.32.11,8.79,4,4.63,8.39,0,18.17,0Z"/><path class="cls-3" d="M81.78,57h-11V10h-17V0h44V10h-16Z"/><path class="cls-3" d="M110.42,57h-11L121,0h11.45l22,57H142.86L138,43H115Zm8.42-23h15.34l-7.8-21.74Z"/><path class="cls-3" d="M173.23,57H161.78V0h13.86l21.14,41.06L196.31,0h10.47V57H194.54L172.78,14Z"/><path class="cls-3" d="M250.78,47V33h-14V23h25V57H238.57q-24.33,0-24.33-27.43,0-15.85,6.49-23.07Q226.67,0,238.57,0h23.21V10H238.66q-5.81,0-8.66,3.84-3.47,4.55-3.46,15.34,0,8.87,2.54,13.1Q231.93,47,238.66,47Z"/><path class="cls-3" d="M307.78,48v9h-14q-11.17,0-15.86-3.82-6.14-5-6.14-18.84V1h11V31.94a56.3,56.3,0,0,0,.47,9.09,7.71,7.71,0,0,0,3.11,5.25Q289,48,294.71,48Z"/><path class="cls-3" d="M352.78,0V10H335.47q-11.13,0-11.88,13h29.19V33h-30q0,7.56,2.92,10.78T335,47h17.8V57h-18.2q-24,0-24-27.43,0-14.11,5.11-21.33Q321.6,0,334.89,0Z"/><path class="cls-3" d="M371.78,57h-11V0h26.53q9.19,0,13.62,4t4.42,13.16a19.12,19.12,0,0,1-2.5,10.23A12.68,12.68,0,0,1,395,33.14L407.7,57H395.55L384.3,35H371.78Zm12.84-46H371.78V25h12.84q5.26,0,7.32-1.5T394,17.92c0-2.3-.37-3.87-1.09-4.69Q390.92,11,384.62,11Z"/><path class="cls-2" d="M35.78,68v6H21.1Q11.67,74,11,83H35.78v6H12.16c0,3.24.76,5.55,2.3,6.93s4,2.07,7.31,2.07h14v6H21.7Q3.12,104,3.12,86.68q0-8.91,4-13.47Q11.66,68,21.94,68Z"/><path class="cls-2" d="M68.78,98v6H57.89q-8.7,0-12.34-2.45-4.77-3.21-4.77-12.12V68h9V87.75a31.6,31.6,0,0,0,.35,5.8A4.87,4.87,0,0,0,52.5,96.9c1.34.73,3.45,1.1,6.35,1.1Z"/><path class="cls-2" d="M104.78,68v6H90.1Q80.67,74,80,83h24.75v6H81.16c0,3.24.76,5.55,2.3,6.93s4,2.07,7.31,2.07h14v6H90.7q-18.58,0-18.58-17.32,0-8.91,3.95-13.47Q80.66,68,90.94,68Z"/><path class="cls-2" d="M141.78,68v6h-14q-4.87,0-7.21,2.7-2.77,3.17-2.77,10.6,0,6.78,2.81,9.07C122,97.46,124.38,98,127.82,98h14v6H127.7q-18.58,0-18.58-17.32,0-8.91,3.95-13.47Q117.66,68,127.94,68Z"/><path class="cls-2" d="M164.78,104h-9V74h-13V68h35v6h-13Z"/><path class="cls-2" d="M191.78,104h-8V68H204.3q7.11,0,10.54,2.55t3.42,8.31a10.38,10.38,0,0,1-1.94,6.46,9.89,9.89,0,0,1-6,3.61L220.08,104h-9.77l-8.77-14h-9.76Zm10.11-30H191.78v9h10.11q4.14,0,5.76-1c1.08-.65,1.62-1.84,1.62-3.59a4.05,4.05,0,0,0-.86-3Q206.85,74,201.89,74Z"/><path class="cls-2" d="M244.09,66.79q9.27,0,14.15,3.7,6.12,4.55,6.12,15.24,0,18.93-20.15,18.93-10.32,0-15.24-4.73t-4.92-14.3Q224.05,66.79,244.09,66.79ZM233.25,85.63q0,12.81,10.92,12.81t11-12.66q0-12.72-11-12.71c-3.66,0-6.41,1.11-8.28,3.34S233.25,81.64,233.25,85.63Z"/><path class="cls-2" d="M280.14,104h-8.36V68h10.7l16.3,25.94L298.42,68h8.36v36h-9.72L279.78,76.81Z"/><path class="cls-2" d="M318.78,68h9v36h-9Z"/><path class="cls-2" d="M366.78,68v6h-14q-4.87,0-7.21,2.7-2.78,3.17-2.77,10.6,0,6.78,2.81,9.07C347,97.46,349.38,98,352.82,98h14v6H352.7q-18.58,0-18.58-17.32,0-8.91,3.95-13.47Q342.66,68,352.94,68Z"/><path class="cls-2" d="M383.1,67h22.68v7H384.21q-6.85,0-6.86,4.92,0,4.08,5.58,4.08h11.34q7.17,0,10.19,2.61,2.78,2.37,2.66,7.59c-.08,3.62-1.11,6.26-3.09,7.94q-3.3,2.86-10.91,2.86H370.78V97h20.38q3.73,0,5.12-1.22a4.21,4.21,0,0,0,1.16-3.37,2.81,2.81,0,0,0-.89-2.29c-.87-.75-2.49-1.12-4.85-1.12h-9.29q-13.86,0-13.7-10.79c.05-3.69,1.11-6.42,3.18-8.22Q375.36,67,383.1,67Z"/><path class="cls-4" d="M16.35,131.61l1.27-1.38a6.65,6.65,0,0,0,4.58,2c2.18,0,3.48-1,3.48-2.55s-1.21-2.12-2.78-2.77l-2.38-1c-1.55-.63-3.37-1.74-3.37-4s2.21-4.18,5.23-4.18a7.08,7.08,0,0,1,4.9,2l-1.12,1.29a5.49,5.49,0,0,0-3.78-1.48c-1.86,0-3.09.89-3.09,2.3s1.45,2.08,2.75,2.6l2.37,1c1.92.78,3.42,1.86,3.42,4.2,0,2.49-2.17,4.47-5.66,4.47A8.22,8.22,0,0,1,16.35,131.61Z"/><path class="cls-4" d="M52,118h2.43l5.71,16H57.76l-2.88-8.73c-.59-1.75-1.12-3.47-1.65-5.27h-.1c-.52,1.81-1.05,3.52-1.64,5.27L48.58,134h-2.3Zm-3.22,9h8v2h-8Z"/><path class="cls-4" d="M79.78,118h2v14h7v2h-9Z"/><path class="cls-4" d="M109.78,118h9v2h-7v4h6v2h-6v6h8v2h-10Z"/><path class="cls-4" d="M139.29,131.61l1.26-1.38a6.65,6.65,0,0,0,4.59,2c2.18,0,3.47-1,3.47-2.55s-1.2-2.12-2.77-2.77l-2.39-1c-1.55-.63-3.36-1.74-3.36-4s2.21-4.18,5.23-4.18a7.06,7.06,0,0,1,4.89,2l-1.12,1.29a5.48,5.48,0,0,0-3.77-1.48c-1.86,0-3.1.89-3.1,2.3s1.45,2.08,2.75,2.6l2.37,1c1.92.78,3.42,1.86,3.42,4.2,0,2.49-2.17,4.47-5.66,4.47A8.2,8.2,0,0,1,139.29,131.61Z"/><path class="cls-3" d="M170.08,129.41c0-4.66,7.59-5.42,7.59-8.8a1.53,1.53,0,0,0-1.57-1.74,2.08,2.08,0,0,0-2,2.29c0,2.94,3.42,6.86,6.6,9.1a12.32,12.32,0,0,0,3.66,1.87l-.56,1.64a13.22,13.22,0,0,1-4.34-2.19c-3.65-2.67-7.15-7.05-7.15-10.39a3.65,3.65,0,0,1,3.83-3.73,3,3,0,0,1,3.27,3.12c0,4-7.26,5.26-7.26,8.71a3,3,0,0,0,3.28,2.91,5.58,5.58,0,0,0,3.8-1.85,12.55,12.55,0,0,0,3-5.35h1.93a16.51,16.51,0,0,1-3.47,6.29,7.32,7.32,0,0,1-5.49,2.48C172.14,133.77,170.08,131.94,170.08,129.41Z"/><path class="cls-4" d="M203.28,131.61l1.26-1.38a6.65,6.65,0,0,0,4.59,2c2.18,0,3.47-1,3.47-2.55s-1.2-2.12-2.77-2.77l-2.39-1c-1.55-.63-3.36-1.74-3.36-4s2.21-4.18,5.23-4.18a7.06,7.06,0,0,1,4.89,2l-1.12,1.29a5.48,5.48,0,0,0-3.77-1.48c-1.87,0-3.1.89-3.1,2.3s1.45,2.08,2.75,2.6l2.37,1c1.92.78,3.42,1.86,3.42,4.2,0,2.49-2.17,4.47-5.66,4.47A8.2,8.2,0,0,1,203.28,131.61Z"/><path class="cls-4" d="M235.78,118h9v2h-7v4h6v2h-6v6h8v2h-10Z"/><path class="cls-4" d="M266.78,118h5.06c3.35,0,5.76,1.14,5.76,4.39s-2.41,4.61-5.76,4.61h-3.06v7h-2Zm4.86,7c2.66,0,4.13-1,4.13-3.12S274.3,119,271.64,119h-2.86v6Zm-.46,1.8,1.65-1,5.08,8.23h-2.4Z"/><path class="cls-4" d="M296.07,118h2.25l2.74,8.69c.6,1.89,1,3.43,1.64,5.31h.1c.63-1.88,1.05-3.42,1.64-5.31l2.72-8.69h2.17L304,134h-2.49Z"/><path class="cls-4" d="M328.78,118h2v16h-2Z"/><path class="cls-4" d="M352.12,125.8c0-5.07,3.16-8.17,7.38-8.17a6.34,6.34,0,0,1,4.57,1.94l-1.16,1.31a4.63,4.63,0,0,0-3.37-1.49c-3.14,0-5.23,2.44-5.23,6.36s2,6.43,5.14,6.43a5.12,5.12,0,0,0,3.86-1.76l1.15,1.25a6.52,6.52,0,0,1-5.09,2.27C355.23,133.94,352.12,130.91,352.12,125.8Z"/><path class="cls-4" d="M384.78,118h10v2h-7v4h6v2h-7v6h8v2h-10Z"/><path class="cls-5" d="M17.07,34H30.53q4.69,0,6.44,1.82a5.17,5.17,0,0,1,1.18,3.73c0,2.59-.52,4.41-1.54,5.47q-1.83,2-6.8,2h-27V57H31.13Q40.81,57,45,52.55q3.78-3.9,3.93-12.34Q49,32.7,46,29H3.65Q7.72,34,17.07,34Z"/><rect class="cls-5" x="70.78" y="29" width="11" height="28"/><polygon class="cls-5" points="134.66 34 118.36 34 120.09 29 110.16 29 99.54 57 110.42 57 114.99 43 137.97 43 142.85 57 154.3 57 143.5 29 132.87 29 134.66 34"/><polygon class="cls-5" points="195.93 41.3 189.29 29 178.67 29 193.85 57 206.78 57 206.78 29 195.78 29 195.93 41.3"/><polygon class="cls-5" points="161.78 57 172.78 57 172.48 29 161.78 29 161.78 57"/><path class="cls-5" d="M236.78,34h14V47H238.64q-6.73,0-9.59-4.67-2.55-4.19-2.55-13V29H215l0,0q-.42,28,24,28h22.86V29h-25Z"/><path class="cls-5" d="M271.78,34.27q0,13.9,6.18,18.9,4.71,3.82,16,3.83h13.84V48H294.71q-5.71,0-8.35-1.66a7.39,7.39,0,0,1-3.11-5.07,52.44,52.44,0,0,1-.47-8.77V29h-11Z"/><path class="cls-5" d="M311.19,29q-.42,28,23.66,28h17.93V47H335q-6.36,0-9.28-3.22T322.78,33h30V29H311.21Z"/><path class="cls-5" d="M360.78,29V57h11V35h12.93l11.62,22H407L394.52,33.49A12.45,12.45,0,0,0,401.43,29Z"/></g></g></g></svg>